<?xml version="1.0" encoding="UTF-8" standalone="no"?>
<!-- Created with Inkscape (http://www.inkscape.org/) -->

<svg
   xmlns:dc="http://purl.org/dc/elements/1.1/"
   xmlns:cc="http://creativecommons.org/ns#"
   xmlns:rdf="http://www.w3.org/1999/02/22-rdf-syntax-ns#"
   xmlns:svg="http://www.w3.org/2000/svg"
   xmlns="http://www.w3.org/2000/svg"
   xmlns:sodipodi="http://sodipodi.sourceforge.net/DTD/sodipodi-0.dtd"
   xmlns:inkscape="http://www.inkscape.org/namespaces/inkscape"
   width="210mm"
   height="297mm"
   viewBox="0 0 210 297"
   version="1.1"
   id="svg4945"
   inkscape:version="0.92.2 (5c3e80d, 2017-08-06)"
   sodipodi:docname="dibujo-1.svg">
  <defs
     id="defs4939" />
  <sodipodi:namedview
     id="base"
     pagecolor="#ffffff"
     bordercolor="#666666"
     borderopacity="1.0"
     inkscape:pageopacity="0.0"
     inkscape:pageshadow="2"
     inkscape:zoom="0.98994949"
     inkscape:cx="310.881"
     inkscape:cy="550.2986"
     inkscape:document-units="mm"
     inkscape:current-layer="layer1"
     showgrid="false"
     inkscape:window-width="1366"
     inkscape:window-height="705"
     inkscape:window-x="-8"
     inkscape:window-y="-8"
     inkscape:window-maximized="1" />
  <metadata
     id="metadata4942">
    <rdf:RDF>
      <cc:Work
         rdf:about="">
        <dc:format>image/svg+xml</dc:format>
        <dc:type
           rdf:resource="http://purl.org/dc/dcmitype/StillImage" />
        <dc:title></dc:title>
      </cc:Work>
    </rdf:RDF>
  </metadata>
  <g
     inkscape:label="Capa 1"
     inkscape:groupmode="layer"
     id="layer1">
    <path
       style="fill:#1a1a1a;stroke-width:0.26458332"
       id="path4975"
       d="m 47.333489,122.55423 c -0.141411,0.083 -0.566218,0.33089 -0.424235,0.2489 0.924809,-0.53401 1.847262,-1.07209 2.772719,-1.60497 0.371499,-0.21391 -0.741645,0.43016 -1.110821,0.64805 -0.465299,0.27462 -0.930569,0.54933 -1.392573,0.82946 -1.740776,1.05548 -1.544794,0.94948 -3.311637,2.10408 -4.10361,2.77842 -8.1041,5.70587 -11.990583,8.77991 -4.503189,3.57575 -8.453867,7.75907 -12.286682,12.02605 -2.619421,2.87627 -4.961169,5.99818 -7.01091,9.3042 -1.189648,1.91879 -1.639479,2.82883 -2.7038522,4.80974 -1.6169696,3.21009 -3.0467779,6.52414 -4.0440819,9.98287 -0.6240568,2.16428 -0.7030434,2.81682 -1.1311572,5.00456 -0.5800889,3.73296 -0.6851385,7.61147 0.3258973,11.28772 0.1741094,0.63308 0.4280588,1.24145 0.6420885,1.86217 1.0256099,2.29893 2.5595026,4.27016 4.7576835,5.55073 1.424446,0.82982 2.285352,1.04307 3.844944,1.58708 3.285468,0.91446 6.700332,1.22347 10.101029,1.25446 0.980468,0.009 1.962253,0.009 2.941156,-0.0467 1.054992,-0.0605 2.10379,-0.20177 3.155686,-0.30266 7.873394,-1.0921 15.427279,-3.63804 22.948087,-6.11163 7.905906,-2.75649 15.794736,-5.59684 23.490359,-8.90474 1.862098,-0.80041 3.70314,-1.64894 5.554713,-2.47341 10.934707,-5.20098 21.562351,-11.06409 31.564411,-17.90208 2.48386,-1.69812 4.89381,-3.50192 7.34073,-5.25288 8.82138,-6.44012 17.13867,-13.5605 24.70541,-21.44222 4.01677,-4.18398 4.95872,-5.44892 8.55981,-9.75263 2.47528,-3.24567 3.28697,-4.19788 5.45932,-7.43184 0.61176,-0.91073 1.22445,-1.82331 1.76624,-2.77733 0.77897,-1.37168 1.45393,-2.81584 1.7564,-4.37567 0.10447,-0.53876 0.0759,-1.09496 0.11381,-1.64244 -0.10704,-0.42936 -0.14747,-0.88108 -0.32112,-1.28809 -0.72967,-1.7102 -2.66854,-2.37982 -4.35093,-2.66036 -0.58286,-0.0972 -1.17522,-0.12468 -1.76283,-0.18703 -0.6576,-0.004 -1.31592,-0.043 -1.9728,-0.0119 -2.4059,0.11377 -4.76566,0.6453 -7.09622,1.21526 -2.09629,0.51268 -3.70214,0.96746 -5.80022,1.54051 0,0 2.86479,-2.20185 2.86479,-2.20185 v 0 c 2.27368,-0.63603 3.63537,-1.03754 5.89559,-1.59385 2.3859,-0.58725 4.7965,-1.12231 7.26092,-1.22659 0.67544,-0.0286 1.35202,0.0134 2.02803,0.0201 0.61044,0.0677 1.22656,0.0959 1.83133,0.20302 1.83809,0.32565 3.86667,1.13366 4.61112,3.0111 0.17973,0.45326 0.21368,0.95149 0.32051,1.42723 -0.0525,0.58623 -0.0333,1.18335 -0.15746,1.75869 -0.59794,2.77176 -2.26778,5.16894 -3.86953,7.43796 -2.29148,3.24609 -3.24798,4.35914 -5.81501,7.61212 -3.55523,4.15377 -4.91518,5.86607 -8.82376,9.89031 -7.67822,7.90543 -16.05145,15.1119 -24.96457,21.59053 -2.4193,1.74395 -4.80215,3.53961 -7.2579,5.23184 -11.46204,7.89834 -23.759727,14.52755 -36.231976,20.66853 -1.89893,0.85793 -3.785097,1.7447 -5.696788,2.5738 -7.735941,3.35512 -15.692104,6.1831 -23.637978,8.99039 -7.603858,2.52303 -15.246887,5.10549 -23.21342,6.21556 -1.071054,0.10298 -2.138958,0.24693 -3.213163,0.30896 -0.990126,0.0572 -1.983189,0.0562 -2.974933,0.0484 -3.459719,-0.0274 -6.935737,-0.33394 -10.277257,-1.27024 -1.5966371,-0.56291 -2.4882075,-0.78709 -3.945568,-1.64809 -2.2633913,-1.33722 -3.8272224,-3.38484 -4.8696433,-5.767 -0.2157591,-0.63803 -0.4729164,-1.26353 -0.6472774,-1.9141 -1.00147507,-3.73666 -0.89680405,-7.67418 -0.3132029,-11.46381 0.4414196,-2.23882 0.5127903,-2.84104 1.1447324,-5.05812 0.9918632,-3.47983 2.3987176,-6.82 4.0233754,-10.04868 1.0647117,-1.98948 1.5237415,-2.91962 2.7131219,-4.84823 2.0495339,-3.32337 4.3849759,-6.4705 7.0075899,-9.36409 3.815456,-4.26691 7.731974,-8.46736 12.206528,-12.06049 3.843319,-3.06604 7.805732,-5.97751 11.857352,-8.76294 3.359589,-2.24067 6.827276,-4.31207 10.359173,-6.27089 0,0 -3.304567,2.64334 -3.304567,2.64334 z"
       inkscape:connector-curvature="0" />
    <path
       style="fill:#1a1a1a;stroke-width:0.26458332"
       id="path5007"
       d="m 21.161251,154.9365 c 0.855154,-1.67834 1.788107,-3.316 2.662334,-4.98534 1.110707,-2.14205 2.373837,-4.19473 3.8601,-6.0954 1.098899,-1.42056 2.470827,-2.57196 3.919955,-3.61571 1.873303,-1.33984 3.792937,-2.50785 5.887297,-3.52482 0.109696,-0.0533 0.233275,0.0712 0.349911,0.10674 0.907434,0.64992 0.989449,1.81082 0.975225,2.83625 -0.167997,1.92042 -0.274764,3.84374 -0.340024,5.7702 -0.02215,2.47117 -0.1074,4.93783 -0.342574,7.39816 -0.247531,2.9567 -0.509466,5.91184 -0.809316,8.8638 -0.368625,3.13615 -0.983795,6.23482 -1.779844,9.28851 -0.780865,2.72505 -1.540431,5.4552 -2.345552,8.17306 -0.215903,0.78297 -0.45266,1.56211 -0.578731,2.36616 -0.06043,0.38544 -0.114615,0.74748 -0.01757,0.74964 -5.803114,2.90616 -3.899654,2.49065 -2.986521,0.83558 0.568486,-1.03039 1.018423,-2.1316 1.494435,-3.2056 1.731865,-4.30543 3.243882,-8.69561 4.882298,-13.03716 1.859214,-4.89712 3.5554,-9.8538 5.380964,-14.76306 1.896774,-4.9241 3.785605,-9.85188 5.704141,-14.76779 1.277861,-3.27284 2.521882,-6.56259 4.13235,-9.68941 0.585224,-1.11525 1.369391,-2.10973 2.014106,-3.18716 0.11031,-0.0549 0.07039,-0.0509 0.140034,0.22211 0.01199,0.047 -0.0021,0.0969 -0.0031,0.14535 1.1807,-0.67115 2.361401,-1.34229 3.542104,-2.01344 0,0 -3.944324,1.57698 -3.944324,1.57698 v 0 c 0.912524,-0.52974 3.544642,-3.19201 4.11869,-1.83385 0.02421,0.0573 0.0083,0.12413 0.01236,0.1862 -0.209074,0.35803 -0.46677,0.66441 -0.70761,1.00133 -0.52619,0.73612 -1.01238,1.50251 -1.510424,2.25747 -1.727391,3.12723 -3.055628,6.44403 -4.384241,9.75558 -1.961097,4.90649 -3.837903,9.84671 -5.739921,14.77612 -1.827485,4.91154 -3.497734,9.88079 -5.389293,14.76906 -0.943697,2.49406 -1.861918,4.99466 -2.723171,7.51866 -0.664678,1.94791 -0.678185,2.1152 -1.336183,3.92291 -0.182496,0.50137 -0.378893,0.99756 -0.56834,1.49635 -0.438987,1.06172 -0.859288,2.13627 -1.339996,3.18029 -0.09347,0.203 -0.197183,0.40112 -0.29632,0.60141 -0.06722,0.13581 -0.07136,0.33136 -0.202737,0.40687 -1.280123,0.73578 -2.639737,1.32369 -3.959606,1.98553 -0.03704,-0.0742 -0.09506,-0.14132 -0.111109,-0.22271 -0.04036,-0.20466 0.04352,-0.7036 0.07148,-0.85917 0.150085,-0.83512 0.422624,-1.63924 0.662463,-2.45108 0.84653,-2.71905 1.653821,-5.44804 2.418885,-8.19161 0.810929,-3.03314 1.449117,-6.1071 1.801934,-9.23025 0.30004,-2.94454 0.567751,-5.89136 0.780836,-8.84356 0.19649,-2.44865 0.329618,-4.90036 0.316682,-7.35812 0.04066,-1.90856 0.11103,-3.8159 0.247994,-5.72028 0.01691,-0.61429 0.04706,-1.73664 -0.503259,-2.18141 -0.06022,-0.0487 -0.143533,-0.0581 -0.215302,-0.0872 -1.460928,0.28522 -0.434207,0.11069 3.054268,-1.89773 0.1377,-0.0793 -0.255357,0.18937 -0.38759,0.27746 -0.547368,0.36466 -1.108859,0.7091 -1.644688,1.09172 -1.474086,1.01033 -2.874983,2.1312 -4.007172,3.52677 -1.531155,1.8638 -2.828298,3.8895 -3.927819,6.0383 -0.834634,1.62093 -1.720203,3.22105 -2.488847,4.87283 0,0 -3.839676,1.76444 -3.839676,1.76444 z"
       inkscape:connector-curvature="0" />
    <path
       style="fill:#1a1a1a;stroke-width:0.26458332"
       id="path5009"
       d="m 67.024659,129.34877 c -0.636682,1.98317 -1.22963,3.98215 -1.800219,5.98574 -0.631773,2.17322 -1.129052,4.38123 -1.648019,6.58312 -0.06352,0.34547 -0.174839,0.82204 -0.168735,1.19159 0.0013,0.0814 -0.0089,0.18584 0.05332,0.2384 0.03827,0.0323 0.118811,-0.15297 0.0738,-0.13095 -1.161206,0.56809 -2.273943,1.23362 -3.445333,1.7804 -0.163303,0.0762 0.268714,-0.24021 0.403072,-0.36033 0.16184,-0.22359 0.336576,-0.43839 0.485521,-0.67077 0.426085,-0.66477 0.795036,-1.41224 1.135877,-2.11903 0.804252,-1.66774 1.522521,-3.37483 2.255391,-5.07453 1.85149,-4.26624 3.681264,-8.54239 5.46251,-12.83847 0.634524,-1.52337 1.239256,-3.05969 1.809375,-4.60838 0.280863,-0.76294 0.558032,-1.51733 0.730699,-2.31182 -0.01312,-0.0729 0.02861,-0.18929 -0.03936,-0.21882 -0.05858,-0.0255 -0.07672,0.10235 -0.119462,0.14982 -0.09445,0.10489 -0.418364,0.36936 -0.291785,0.30689 1.02039,-0.50355 1.954488,-1.17684 2.993713,-1.64026 0.314526,-0.14026 -0.536226,0.43258 -0.795015,0.65979 -0.315439,0.27696 -0.618082,0.56816 -0.927124,0.85224 -3.133889,3.08697 -5.640686,6.73093 -8.12838,10.33834 -2.553941,3.90032 -5.191972,7.769 -7.40658,11.87848 -0.463751,0.86055 -0.885645,1.743 -1.32847,2.6145 -1.474229,3.12875 -2.73839,6.36273 -3.629983,9.7079 -0.450056,1.68857 -0.595635,2.57881 -0.928502,4.27861 -0.531516,3.02747 -0.714221,6.15267 -0.212508,9.19939 0.08349,0.50701 0.210926,1.0058 0.316389,1.5087 0.510003,1.77652 1.106726,3.71961 2.51102,5.02098 0.173162,0.16047 0.37969,0.28067 0.569537,0.421 0.460362,0.18546 0.586846,0.32377 1.086951,0.206 0.181967,-0.0429 0.674703,-0.32063 0.512632,-0.22746 -4.790368,2.75378 -3.247265,1.97214 -1.865847,0.63869 0.957562,-1.00073 2.042885,-1.8656 3.043092,-2.82088 0.923745,-0.88226 1.012452,-1.01694 1.881815,-1.97921 2.221209,-2.58583 3.982177,-5.51851 5.85329,-8.35713 1.631828,-2.39281 3.107044,-4.884 4.560974,-7.38679 0.805445,-1.39893 1.670156,-2.76247 2.508565,-4.14174 0.325763,-0.37534 0.409946,-0.87302 0.610357,-1.30403 0.0077,-0.0166 0.01474,0.0397 0.0043,0.0547 -0.02326,0.0332 -0.0636,0.0503 -0.0954,0.0755 -0.86986,0.11186 -1.737759,0.29914 -2.595946,0.48775 -1.38099,0.26057 -2.770312,0.47237 -4.148841,0.74581 -1.409962,0.26614 -2.697726,0.91371 -3.956071,1.57609 -2.052611,1.18398 1.688901,-0.97578 2.407139,-1.36409 0.192643,-0.10415 -0.36249,0.24601 -0.539303,0.37522 -0.49762,0.36367 -0.960064,0.76682 -1.42063,1.17531 -0.314777,0.30855 -0.402084,0.37561 -0.670655,0.70504 -0.06516,0.0799 -0.122198,0.16616 -0.182822,0.24959 -0.01786,0.0246 -0.03951,0.10178 -0.0526,0.0744 -0.207671,-0.43475 -0.15689,-0.35956 0.141126,-0.54833 0.136964,-0.0751 0.274908,-0.14846 0.410898,-0.22532 0.17915,-0.10125 0.713325,-0.41074 0.534464,-0.30897 -0.953246,0.54234 -1.895779,1.10379 -2.85763,1.63073 -0.262329,0.14371 0.508143,-0.31584 0.757896,-0.48043 0.270129,-0.17803 0.534808,-0.36418 0.801527,-0.54728 0.284697,-0.19543 0.568473,-0.39219 0.852712,-0.58829 2.687151,-1.77559 5.529075,-3.31446 8.311478,-4.93072 0.815446,-0.47368 -1.636469,0.9377 -2.454704,1.40655 0.337913,-0.19833 0.673624,-0.40047 1.013741,-0.59501 1.490675,-0.85261 2.97222,-1.72176 4.478557,-2.54638 0.346315,-0.18959 0.715888,-0.33325 1.076253,-0.49454 1.054881,-0.47211 2.124469,-0.90325 3.199765,-1.32602 0.849024,-0.31878 1.714378,-0.58981 2.5736,-0.87845 0.509169,-0.17105 0.663498,-0.27884 1.184613,-0.32264 0.167503,-0.0141 0.336108,0.007 0.504161,0.0107 0.838915,0.11929 1.375177,0.78582 1.475343,1.61744 0.02577,0.21401 0.0041,0.4311 0.0062,0.64666 -0.263895,2.11207 -0.937019,4.14669 -1.631016,6.14977 -0.885039,2.66019 -2.148414,5.16383 -3.515783,7.60276 -0.842068,1.4672 -1.701581,2.92251 -2.617695,4.34458 0,0 -3.771821,1.652 -3.771821,1.652 v 0 c 0.964806,-1.42319 1.876449,-2.87754 2.737118,-4.36689 1.381265,-2.41222 2.678771,-4.88276 3.544927,-7.53456 0.660347,-1.94829 1.295376,-3.91757 1.551844,-5.96757 0.03909,-0.94668 -0.07169,-1.60865 -1.150598,-1.67829 -1.416066,0.12879 -2.726026,0.81766 -4.073335,1.22488 -1.066464,0.4234 -2.129271,0.85218 -3.170356,1.33583 -0.357376,0.16603 -1.391198,0.7346 -1.064342,0.5145 0.778803,-0.52445 1.618215,-0.95273 2.425956,-1.43141 0.336167,-0.19921 -0.674145,0.39535 -1.011216,0.59302 -10.458966,6.07204 -3.062687,1.77623 -1.983364,1.15452 0.329821,-0.18999 -0.657241,0.38412 -0.98593,0.57606 -0.969161,0.56594 -1.950477,1.11517 -2.872836,1.75673 -2.434722,1.68495 -4.905504,3.33365 -7.585487,4.61508 -1.612665,0.43709 -0.03297,-1.30345 0.22602,-1.52129 2.118622,-1.93127 2.99393,-2.24967 6.035299,-4.02025 0.191135,-0.11127 0.388215,-0.212 0.582322,-0.318 1.280318,-0.64937 2.597491,-1.24135 4.025214,-1.47961 1.3905,-0.2577 2.786655,-0.48517 4.171432,-0.7731 0.905459,-0.18545 1.845738,-0.48676 2.773193,-0.3771 0.201567,0.12743 0.353578,0.16536 0.413985,0.42506 0.07055,0.3033 -0.49762,1.23473 -0.631893,1.47871 -0.877562,1.38803 -1.753944,2.77743 -2.611308,4.17785 -1.512104,2.51246 -3.005106,5.03786 -4.667708,7.45589 -1.876512,2.82168 -3.608244,5.75436 -5.762344,8.37854 -0.810514,0.93082 -0.966629,1.14633 -1.831639,2.0012 -0.964203,0.9529 -2.033429,1.79368 -2.970498,2.77509 -1.811621,1.85592 -1.778678,1.67356 -5.218888,3.47036 -0.598853,0.31278 -1.29672,-0.0228 -1.801246,-0.32386 -0.194848,-0.1673 -0.406205,-0.31711 -0.584539,-0.50192 -1.377847,-1.42784 -1.993924,-3.40055 -2.489134,-5.2678 -0.262086,-1.301 -0.416526,-1.87224 -0.521758,-3.21502 -0.200758,-2.56161 0.0075,-5.16446 0.456559,-7.68674 0.344559,-1.7189 0.497195,-2.62562 0.960692,-4.33329 0.917599,-3.38072 2.206715,-6.64883 3.701735,-9.81313 0.430967,-0.87352 0.836703,-1.75996 1.292897,-2.62058 2.190128,-4.1317 4.863325,-7.9909 7.401623,-11.90923 2.417689,-3.55534 4.796999,-7.18127 7.793522,-10.28584 2.078667,-2.02003 2.379514,-2.13501 5.712203,-4.0129 0.550066,-0.30995 0.905706,0.0488 0.934858,0.57522 -0.220107,0.83877 -0.536408,1.63116 -0.86079,2.43565 -0.634868,1.5745 -1.294583,3.13926 -1.974943,4.6946 -1.820137,4.26767 -3.599397,8.5521 -5.420077,12.81961 -1.095724,2.64909 -2.099659,5.36628 -3.541307,7.8512 -1.08784,1.6615 -0.498592,0.92722 -4.30216,2.5755 -0.114935,0.0498 -0.215431,-0.14526 -0.276238,-0.25478 -0.263054,-0.47377 0.11366,-1.18311 0.136671,-1.64822 0.581908,-2.20995 1.095073,-4.43722 1.726438,-6.63411 0.549097,-1.96657 1.137285,-3.92345 1.600435,-5.91264 0,0 3.813612,-1.79102 3.813612,-1.79102 z"
       inkscape:connector-curvature="0" />
    <path
       style="fill:#1a1a1a;stroke-width:0.26458332"
       id="path5011"
       d="m 96.224597,122.60541 c -0.203915,2.30392 -0.386511,4.60952 -0.603621,6.91227 -0.263921,3.0303 -0.761574,6.03121 -1.181684,9.04161 -0.09631,0.79317 -0.220345,1.58362 -0.24043,2.38368 -0.0011,0.0454 -0.03093,0.70729 0.04732,0.80032 -1.243899,0.58047 -2.433336,1.29587 -3.731691,1.74139 -0.165986,0.057 0.09705,-0.33742 0.137708,-0.50813 0.18769,-0.78804 0.350276,-1.5819 0.535085,-2.37063 0.49344,-2.10589 0.445447,-1.86848 1.02148,-4.13026 1.477025,-5.55321 3.251517,-11.02207 4.989565,-16.49767 0.793353,-2.51753 1.605317,-5.03721 1.935504,-7.66397 -0.0123,-0.1049 0.132278,-0.94315 -0.202832,-0.96505 -0.180047,-0.0118 -1.152735,0.59558 -1.248545,0.65489 0.93151,-0.4918 1.795716,-1.14081 2.794534,-1.4754 0.36776,-0.12319 -0.566118,0.53133 -0.828606,0.81685 -0.327332,0.35606 -0.640165,0.72586 -0.939144,1.10603 -1.235181,1.57064 -2.280327,3.27427 -3.336391,4.96617 -2.563373,4.16057 -4.467952,8.68778 -5.943777,13.33806 -0.322466,1.01609 -0.602826,2.04506 -0.90424,3.06759 -1.33827,5.15174 -2.499383,10.37666 -3.117426,15.67025 -0.103228,0.88416 -0.159211,1.77319 -0.238816,2.65979 -0.08234,2.42196 -0.286851,6.49814 1.872097,8.23422 0.2604,0.2094 0.599045,0.29626 0.898569,0.44439 0.331788,-0.0108 1.240423,-0.25645 0.99536,-0.0325 -0.617834,0.56455 -1.41192,1.34603 -2.227543,1.15843 -0.641966,-0.14766 1.007314,-0.85384 1.456331,-1.33582 1.726228,-1.85297 2.997522,-4.06925 4.293433,-6.22415 2.416918,-4.0537 4.204774,-8.44042 6.567678,-12.52102 0.232738,-0.31318 0.465476,-0.62636 0.698214,-0.93953 0,0 3.704581,-1.58371 3.704581,-1.58371 v 0 c -0.26136,0.30724 -0.52271,0.61449 -0.78406,0.92173 -2.56471,4.0353 -4.430591,8.46163 -6.789917,12.61505 -1.259131,2.15375 -2.495249,4.33857 -4.111853,6.25403 -0.413271,0.48967 -0.79334,1.03673 -1.328142,1.38966 -1.516824,1.00097 -3.101327,1.92168 -4.772334,2.63614 -0.339519,0.14516 -0.733777,-0.0834 -1.100667,-0.1251 -0.316471,-0.19754 -0.676095,-0.33871 -0.94941,-0.59263 -2.153308,-2.00048 -1.896895,-6.02491 -1.749713,-8.64422 0.09417,-0.90047 0.166378,-1.80352 0.282519,-2.70142 0.686372,-5.30652 1.831584,-10.55202 3.138181,-15.73558 0.292978,-1.02413 0.565076,-2.05446 0.878933,-3.07238 1.430639,-4.63994 3.31494,-9.13618 5.749993,-13.34144 1.004681,-1.67891 2.000044,-3.36638 3.158331,-4.94656 0.148508,-0.2026 1.326796,-1.73759 1.638335,-1.95561 1.357789,-0.95024 2.808126,-1.76085 4.212184,-2.64127 0.36788,-0.17317 0.76386,-0.43388 1.20124,-0.39916 0.78131,0.062 0.80328,0.89475 0.73738,1.47703 -0.42663,2.71475 -1.35444,5.30182 -2.24833,7.89168 -1.84372,5.42279 -3.619727,10.87661 -4.960276,16.4494 -0.403034,1.7943 -0.805944,3.5855 -1.100206,5.40164 -0.0495,0.30553 -0.08978,0.61251 -0.129281,0.91949 -0.0222,0.17246 0.08846,0.42157 -0.0558,0.51865 -1.211101,0.81498 -2.560682,1.4024 -3.841022,2.1036 -0.180361,-1.14228 0.213548,-2.3183 0.32194,-3.44353 0.492233,-3.00906 1.036232,-6.0131 1.270182,-9.05728 0.181213,-2.24816 0.332735,-4.50007 0.372171,-6.75575 0,0 3.756909,-1.91425 3.756909,-1.91425 z"
       inkscape:connector-curvature="0" />
    <path
       style="fill:#1a1a1a;stroke-width:0.26458332"
       id="path5013"
       d="m 120.76439,107.17476 c -0.42901,1.95995 -0.69122,3.94431 -0.87388,5.94051 -0.22778,3.23115 -0.36625,6.46734 -0.53618,9.7018 -0.14155,3.09025 -0.68533,6.14184 -1.14488,9.19585 -0.34358,2.23054 -0.79157,4.45519 -1.45563,6.61407 -0.37549,0.95834 -0.62074,1.93328 -0.72373,2.95513 -0.0252,0.47178 -0.0457,0.94341 -0.0693,1.4152 -0.085,1.7037 1.31227,-0.2191 -3.65714,1.96353 0.50417,-1.34547 0.91027,-2.71957 1.23909,-4.11746 0.63865,-3.00712 0.90653,-6.07834 1.15142,-9.1379 0.22062,-3.57926 0.32291,-7.16493 0.44792,-10.74865 0.0721,-2.7381 0.0871,-5.47402 0.34731,-8.20233 0.13552,-1.52613 0.40097,-3.03683 0.49373,-4.56655 -0.004,-0.1124 -0.008,-0.22479 -0.0125,-0.33718 0,0 3.73601,-1.9208 3.73601,-1.9208 v 0 c 0.005,0.12932 0.009,0.25863 0.0139,0.38794 -0.13309,1.56062 -0.46456,3.09202 -0.63119,4.64927 -0.30993,2.7284 -0.32029,5.4681 -0.41905,8.2099 -0.16589,3.59903 -0.32322,7.19852 -0.51447,10.79622 -0.20035,3.04456 -0.38305,6.10323 -0.95822,9.10523 -0.17927,0.89982 -0.38889,1.78034 -0.63907,2.66312 -0.057,0.20122 -0.12039,0.40058 -0.18058,0.60087 -0.0519,0.14969 -0.11196,0.2968 -0.15574,0.44907 -0.0385,0.13381 -0.0604,0.27182 -0.0906,0.40774 -4.61448,2.56042 -3.95574,3.29872 -3.8289,0.24382 0.0678,-1.07074 0.26411,-2.08795 0.72641,-3.06723 0.77099,-2.13697 1.2566,-4.37262 1.61177,-6.61327 0.48501,-3.04599 1.02737,-6.09386 1.19787,-9.17762 0.17124,-3.22841 0.32974,-6.45736 0.48245,-9.68672 0.13388,-1.97427 0.37143,-3.9302 0.65639,-5.88733 0,0 3.78679,-1.83623 3.78679,-1.83623 z"
       inkscape:connector-curvature="0" />
    <path
       style="fill:#1a1a1a;stroke-width:0.26458332"
       id="path5017"
       d="m 109.68192,146.97072 c 2.33515,-1.09225 4.5486,-2.41785 6.84692,-3.58402 2.68986,-1.30813 5.39274,-2.59824 8.00076,-4.06496 1.47578,-0.88066 3.05303,-1.58552 4.53018,-2.46133 -1.13252,0.64997 -2.32336,1.20751 -3.39757,1.9499 0.0905,0.30864 0.20442,0.3361 -0.0965,0.5196 -0.13706,0.0836 -0.29671,0.12366 -0.43929,0.19744 -0.1942,0.10049 -0.75973,0.43337 -0.56994,0.32479 0.94799,-0.54235 1.89633,-1.08406 2.8445,-1.62609 -2.13359,1.28337 -1.03421,0.62858 -5.15714,2.99474 -0.32699,0.18766 -1.31208,0.74331 -0.98669,0.5529 4.83784,-2.83097 2.18391,-1.27492 1.28556,-0.67834 -0.37763,0.25079 -0.74353,0.5188 -1.11529,0.7782 -1.97018,1.3875 -3.87626,2.8861 -5.96697,4.09407 -1.52443,0.88078 -3.06255,1.73764 -4.59382,2.60647 -1.63261,0.84278 -3.36192,1.48718 -5.17689,1.78515 -0.42994,0.1086 -0.91255,0.15442 -1.32252,0.3376 -0.0859,0.0384 -0.31265,0.20863 -0.23086,0.1622 3.54014,-2.0097 4.19151,-0.86787 3.42743,-2.11637 0.006,-0.0418 -0.0153,-0.0995 0.0181,-0.12525 0.10606,-0.0819 0.68611,-0.0324 0.82122,-0.0527 0.23473,-0.0352 0.63803,-0.17553 0.85268,-0.24424 1.51564,-0.34481 2.95231,-0.93369 4.37076,-1.55629 1.74723,-0.84518 3.43879,-1.79672 5.13403,-2.74003 0.50234,-0.2887 1.01602,-0.557 1.52089,-0.8411 0.22015,-0.12388 0.87595,-0.50367 0.65648,-0.3786 -7.34986,4.18851 -3.31709,2.24531 -2.69819,1.42214 -0.0209,0.0133 -0.0388,0.0338 -0.0628,0.04 -0.61406,0.1592 0.18785,-0.13426 -0.68409,0.14802 -0.63543,0.20571 -1.22538,0.54577 -1.81544,0.85109 -1.77433,0.94231 -3.58009,1.80409 -5.43057,2.58503 -0.73619,0.27299 -1.4679,0.55966 -2.2168,0.7969 -0.39554,0.12529 -0.79601,0.19767 -1.14865,0.42092 2.06114,1.56002 2.32765,-2.04685 3.7652,-2.49345 0.18055,-0.0561 0.36675,-0.092 0.55012,-0.13804 0.26192,-0.0763 0.52651,-0.14403 0.78577,-0.22894 0.93697,-0.30686 0.93026,-0.33656 1.84866,-0.75851 1.93842,-1.0003 3.81917,-2.10589 5.73812,-3.14228 0.8557,-0.48317 1.7808,-0.79072 2.70568,-1.10119 0.10974,-0.0369 0.41779,-0.19379 0.32325,-0.12698 -1.1843,0.83675 -2.40002,1.6281 -3.60003,2.44215 -0.11752,0.0245 -0.23607,0.0446 -0.35256,0.0736 -0.52295,0.13019 -0.65543,0.17202 -1.17027,0.42269 -0.25327,0.12331 -0.99015,0.53767 -0.74552,0.39799 3.32754,-1.9 3.34432,-1.94481 1.66581,-0.83683 -2.18745,1.37612 -4.45437,2.63531 -6.72048,3.87185 -1.01888,0.55597 -2.13142,0.96066 -3.20464,1.3963 -1.36038,0.61852 -2.77611,1.04817 -4.25403,1.25336 -1.60292,0.23075 -3.20666,1.76648 3.07813,-2.38877 0.18308,-0.12104 1.46466,-0.24145 1.67146,-0.27386 2.39775,-0.38588 4.58627,-1.4004 6.71112,-2.52929 2.49884,-1.39306 5.07688,-2.62842 7.67986,-3.81163 0.41117,-0.19366 0.82552,-0.38069 1.2335,-0.58097 0.0631,-0.031 2.27945,-1.16574 2.37166,-1.21474 0.35504,-0.18866 1.40282,-0.78621 1.05626,-0.58238 -0.84672,0.49798 -1.70265,0.98016 -2.55697,1.46499 -0.24854,0.14106 0.49306,-0.28907 0.73959,-0.43361 0.4619,-0.29542 0.9364,-0.57321 1.37934,-0.89741 0.062,-0.0454 0.10963,-0.11321 0.17996,-0.14426 0.0636,-0.0281 0.0773,0.14724 0.13344,0.39272 -0.91594,0.57124 -1.87826,1.07227 -2.82884,1.58501 -0.1924,0.10221 -0.76527,0.41657 -0.57718,0.30664 5.51983,-3.22609 2.34645,-1.26908 -1.15849,0.66931 -0.2123,0.11741 -0.44709,0.18854 -0.67175,0.28011 -0.70933,0.28912 -0.80956,0.32177 -1.53782,0.59769 -0.29065,0.12112 -0.5813,0.24225 -0.87195,0.36337 0,0 3.202,-2.52437 3.202,-2.52437 v 0 c 0.29838,-0.12301 0.59676,-0.24603 0.89514,-0.36904 0.54262,-0.2138 1.01384,-0.39162 1.54461,-0.63094 0.22098,-0.0996 0.86238,-0.44148 0.65515,-0.31568 -6.54312,3.97203 -0.66413,0.15217 1.74434,-0.97341 0.57139,-0.31083 1.13985,-0.6269 1.71066,-0.93876 0.17927,-0.0979 0.7555,-0.41793 0.97132,-0.49754 0.10936,-0.0403 0.22759,-0.0505 0.34139,-0.0757 0.11412,0.11051 0.25382,0.19964 0.34237,0.33154 0.23762,0.35399 -1.42533,1.20216 -1.63182,1.37212 -3.2142,1.85808 -6.39702,3.78456 -9.79378,5.29867 -2.59562,1.18285 -5.15664,2.43672 -7.65319,3.81862 -2.18887,1.13094 -4.44963,2.11588 -6.90103,2.51233 -0.0563,0.009 -1.24916,0.21294 -1.38865,0.23023 -0.14872,0.0184 -0.56029,0.13192 -0.4484,0.0323 3.42857,-3.05412 1.91821,-2.36223 3.71291,-2.57197 1.42333,-0.22748 2.78141,-0.68533 4.10233,-1.2605 0.76058,-0.31079 1.31212,-0.52666 2.06407,-0.87433 0.36553,-0.169 1.41646,-0.7593 1.08625,-0.52878 -0.73706,0.51451 -1.54958,0.91176 -2.3135,1.38548 -0.70699,0.43843 2.82765,-1.64486 2.14693,-1.27247 2.17995,-1.48969 1.27146,-0.90038 5.29029,-3.19651 0.77352,-0.44195 1.65565,-0.79841 2.55888,-0.7335 -1.06904,0.84826 -2.11636,1.72463 -3.20711,2.54478 -0.0826,0.0621 -0.19832,0.0583 -0.29676,0.0898 -0.16629,0.0532 -0.33323,0.10466 -0.49736,0.16416 -0.71683,0.25988 -1.4076,0.58577 -2.08313,0.93805 -1.91698,1.03728 -3.79222,2.1535 -5.75095,3.11181 -0.90184,0.3857 -1.80091,0.75619 -2.76197,0.97259 -0.21278,0.0479 -0.42816,0.10412 -0.64625,0.10238 -0.15322,-10e-4 -0.56088,-0.01 -0.44603,-0.11109 1.05423,-0.93108 2.26702,-1.66552 3.40053,-2.49829 1.10402,-0.30999 2.18919,-0.68051 3.25177,-1.11253 1.85613,-0.78719 3.65539,-1.68416 5.43766,-2.62636 0.66288,-0.3282 2.13332,-1.18424 2.88291,-0.66605 0.11358,0.0785 0.1742,0.21429 0.26131,0.32144 0.0141,0.33247 0.0996,0.46559 -0.25652,0.68745 -2.01977,1.25826 -4.10869,2.39724 -6.18985,3.54801 -1.69608,0.93688 -3.38554,1.88994 -5.1473,2.70027 -1.4603,0.62737 -2.94204,1.20026 -4.48906,1.579 -0.39517,0.0987 -1.49869,0.34138 -1.88961,0.12426 -0.0935,-0.052 -0.1564,-0.14608 -0.23461,-0.21912 -0.0386,-0.10071 -0.2039,-0.23992 -0.11579,-0.30213 2.07061,-1.46213 3.16176,-2.28556 5.29961,-2.61037 1.74433,-0.33016 3.40756,-0.95349 4.97341,-1.79172 -0.74529,0.44544 -1.48989,0.89203 -2.23586,1.33631 -0.40494,0.24117 0.81429,-0.47521 1.21273,-0.72696 1.6373,-1.03456 3.18578,-2.20331 4.75418,-3.33694 2.23655,-1.61353 4.13394,-2.63227 6.6862,-4.10453 0.33369,-0.19248 1.33703,-0.76592 1.00478,-0.57096 -0.86407,0.50705 -1.72854,1.01357 -2.60033,1.50724 -0.25945,0.14693 0.50869,-0.31121 0.76304,-0.46682 1.40467,-0.81452 2.80263,-1.64072 4.21401,-2.44355 0.1994,-0.11343 0.85834,-0.44607 1.13467,-0.48526 0.18711,-0.0265 1.13118,0.1226 0.67408,0.46892 -1.16615,0.88353 -2.51691,1.4924 -3.77537,2.2386 -1.47318,0.78086 -2.95726,1.54201 -4.41,2.36099 -2.60266,1.42007 -5.28111,2.69435 -7.94177,4.00096 -2.3701,1.22588 -4.66076,2.60502 -7.08462,3.72445 0,0 3.30519,-2.59908 3.30519,-2.59908 z"
       inkscape:connector-curvature="0" />
    <path
       style="fill:#1a1a1a;stroke-width:0.26458332"
       id="path5019"
       d="m 112.32013,112.7521 c 0.17345,-0.099 0.69369,-0.39623 0.52036,-0.29701 -0.92324,0.52853 -1.83127,1.08462 -2.77011,1.58491 -0.36676,0.19545 0.70108,-0.44648 1.05189,-0.66929 0.40127,-0.25484 0.80124,-0.51175 1.20435,-0.76366 2.32234,-1.45128 2.62332,-1.55976 5.98768,-3.4926 2.75261,-1.45282 5.65418,-2.5832 8.41266,-4.02474 3.2045,-1.79113 -0.77218,0.47872 -1.17239,0.69303 -0.30201,0.16172 0.58075,-0.36361 0.86986,-0.54741 0.59154,-0.37608 1.17417,-0.76544 1.76134,-1.14822 0.0871,-0.0601 0.16756,-0.13132 0.2614,-0.18029 0.14495,-0.0756 0.22225,0.32286 0.14694,0.46799 -0.0628,0.12112 -0.26003,0.083 -0.38867,0.12851 -0.58957,0.2086 -0.73857,0.27721 -1.35534,0.52553 -1.98627,0.92092 -3.87668,2.02236 -5.87235,2.92351 -1.2779,0.61418 -2.5945,1.15933 -3.84808,1.82389 -0.294,0.15585 -1.15692,0.65815 -0.86778,0.49344 0.87705,-0.4996 1.75434,-0.99875 2.63151,-1.49813 -2.66245,1.67789 -5.32906,3.38455 -8.14867,4.78785 -0.32423,0.18422 -1.79076,0.66403 -1.49074,-0.32125 0.0548,-0.1799 0.23733,-0.29178 0.356,-0.43767 0.92926,-0.78973 1.96546,-1.44443 3.02218,-2.04879 4.46055,-2.55112 2.94219,-1.80087 5.37009,-2.956 1.7511,-0.86758 3.52175,-1.68318 5.34976,-2.37373 0.60565,-0.24395 0.68455,-0.25623 1.21869,-0.53508 0.10154,-0.053 0.39644,-0.22968 0.29726,-0.17239 -1.18076,0.68199 -2.45622,1.2216 -3.54196,2.04651 0.12846,0.6908 0.27306,0.47296 -0.23256,0.74913 -1.33688,0.59191 -2.73358,1.06084 -4.1316,1.48712 -2.06689,0.51717 -4.05232,1.27682 -5.97537,2.1855 -0.60929,0.29222 -1.20685,0.56865 -1.80047,0.89124 -0.25665,0.13947 -1.01213,0.58366 -0.75849,0.4388 5.3345,-3.04666 2.92842,-1.7043 1.75329,-0.97245 -0.38413,0.20517 -0.8994,0.91147 -0.8977,-0.0354 4e-5,-0.019 0.30792,-0.0992 0.56604,-0.17028 1.56928,-0.71347 3.14192,-1.41754 4.71779,-2.11667 1.8295,-0.83036 3.73852,-1.46761 5.65196,-2.0725 1.73283,-0.54082 3.46715,-1.07612 5.21221,-1.57602 0.75616,-0.16311 1.50547,-0.37278 2.216,-0.68274 1.29606,-0.56539 4.16739,-2.28544 -1.58618,0.96945 0.46659,-0.30869 0.9424,-0.60908 1.38049,-0.95853 0.0906,-0.0723 0.17556,-0.15145 0.26076,-0.23003 0.0333,-0.0307 0.0649,-0.13199 0.0945,-0.0977 0.0695,0.0807 0.0575,0.205 0.0862,0.3075 -0.0737,0.0451 -0.14179,0.1009 -0.22099,0.13542 -0.17059,0.0744 -1.02061,0.3439 -1.12055,0.37874 -0.89131,0.31076 -1.75818,0.67768 -2.62635,1.04687 -2.10219,0.91629 -4.21966,1.78461 -6.2646,2.82536 -0.3147,0.18417 -1.26302,0.7293 -0.94412,0.55251 0.83275,-0.46166 1.64256,-0.96498 2.48579,-1.40719 0.3601,-0.18884 -0.68757,0.43431 -1.03463,0.64616 -0.3508,0.21413 -0.70198,0.42784 -1.05882,0.63172 -4.55266,2.60117 -3.02841,1.84261 -5.5813,3.06315 -1.60896,0.79526 -3.29182,1.41991 -4.93958,2.12548 -0.7851,0.35542 -1.62659,0.52815 -2.44596,0.7717 -0.0228,0.0291 -0.0988,0.10843 -0.0685,0.0872 1.17785,-0.82705 2.32902,-1.69201 3.51508,-2.50725 0.18284,-0.12568 0.43294,-0.0995 0.65251,-0.13133 0.92805,-0.13445 0.26058,0.006 1.30004,-0.26015 2.45887,-0.6751 4.61998,-2.10473 6.81344,-3.35903 2.49708,-1.49351 5.26419,-2.43611 7.89203,-3.65846 0.56922,-0.26478 1.12471,-0.55814 1.68707,-0.83721 -1.14521,0.65946 4.13658,-2.28395 3.09348,-1.72939 -0.69188,0.36784 -1.34575,0.80708 -2.0507,1.14921 -0.39644,0.19239 0.75011,-0.4627 1.12228,-0.69863 0.56169,-0.35606 1.1164,-0.723 1.67472,-1.08431 0.18265,0.0637 1.01121,-0.82213 1.20072,-0.90008 0.0288,-0.0118 0.0404,0.0526 0.0413,0.0837 0.005,0.16796 0.076,0.36941 -0.0254,0.50342 -0.14287,0.18891 -0.41275,0.23246 -0.61912,0.34869 -1.67746,0.89833 -3.39295,1.71877 -5.10738,2.54317 0,0 2.89322,-2.31122 2.89322,-2.31122 v 0 c 1.81986,-0.91425 3.64375,-1.82053 5.42125,-2.81598 0.23763,-0.125767 0.44542,-0.349906 0.71288,-0.377306 0.24096,-0.02469 0.69943,0.22215 0.58259,0.434336 -0.0544,0.0988 -0.16447,0.15461 -0.24991,0.2283 -0.1436,0.12387 -0.28534,0.25045 -0.43703,0.36426 -0.19584,0.14694 -0.40301,0.27813 -0.60451,0.4172 -3.49399,2.20143 -7.02034,4.3567 -10.68357,6.26864 -0.56591,0.2743 -1.12627,0.56037 -1.69774,0.8229 -2.65037,1.21758 -5.41027,2.2215 -7.91722,3.73393 -2.24837,1.29077 -4.47718,2.7212 -7.01493,3.37155 -0.60039,0.13592 -1.23751,0.30605 -1.85797,0.33212 -0.11016,0.005 -0.41271,0.0427 -0.32943,-0.0296 2.9879,-2.59227 1.92815,-2.60353 3.41458,-2.55838 0.80874,-0.17858 1.58461,-0.46841 2.35328,-0.77331 1.62592,-0.65323 3.25852,-1.29241 4.83102,-2.06958 1.95261,-0.95942 1.17563,-0.61235 -1.32324,0.89684 -0.35026,0.21154 0.70996,-0.40723 1.05945,-0.62002 2.11574,-1.28816 4.22387,-2.59239 6.40227,-3.77454 2.06136,-1.01899 4.18808,-1.8864 6.29158,-2.8132 0.89412,-0.37588 1.78748,-0.7439 2.70281,-1.06569 0.12961,-0.0456 1.01652,-0.35413 1.22121,-0.38236 0.1285,-0.0177 0.25895,0.0158 0.38842,0.0238 0.0905,0.12537 0.22676,0.22809 0.2715,0.3761 0.0804,0.26609 -1.54608,1.34252 -1.77419,1.48573 -2.64126,1.5442 -4.78204,3.09579 -7.7333,3.71417 -1.73332,0.495 -3.45675,1.02336 -5.17629,1.56424 -1.90332,0.61544 -3.79987,1.26241 -5.61855,2.10166 -1.61913,0.71444 -3.21132,1.4921 -4.85086,2.15634 -0.0896,0.0294 -0.61687,0.20549 -0.62783,0.19817 -0.77267,-0.51593 -0.0132,-0.76622 0.40441,-1.0491 0.73675,-0.4804 0.27173,-0.19053 1.10793,-0.67462 2.22086,-1.28567 4.39441,-2.66207 6.7416,-3.7099 1.95079,-0.88488 3.96069,-1.61201 6.03207,-2.16436 1.41771,-0.46558 2.83928,-0.94535 4.18461,-1.59613 0.13645,-0.0542 0.2693,-0.2066 0.40935,-0.16254 0.21295,0.067 0.67081,0.30678 0.49787,0.44795 -1.52563,1.24533 -3.33987,2.06401 -5.15677,2.76419 -1.80836,0.69219 -3.55427,1.52383 -5.29301,2.37445 -1.83951,0.90692 -1.1999,0.62132 1.59068,-1.03407 0.29516,-0.17509 -0.59284,0.34596 -0.88726,0.5223 -0.89688,0.53719 -0.71743,0.42012 -1.52471,0.99941 -0.18196,0.13056 -0.36213,0.26361 -0.54319,0.39542 -0.32747,0.23708 -0.2905,0.37304 -0.59751,0.14788 -0.0138,-0.0101 0.0287,-0.0199 0.0453,-0.024 0.0862,-0.0212 0.17574,-0.0277 0.26134,-0.0513 0.32672,-0.0898 0.47813,-0.17067 0.8005,-0.31021 1.51886,-0.78716 0.83996,-0.44712 -2.25529,1.34951 -0.26441,0.15348 0.5274,-0.30942 0.79105,-0.46422 0.91205,-0.53553 0.82964,-0.47469 1.7264,-1.05409 0.28774,-0.18591 0.57216,-0.37691 0.85824,-0.56537 2.95983,-1.72364 5.87329,-3.4857 9.0437,-4.79734 2.00276,-0.93502 3.91224,-2.05259 5.93444,-2.94723 0.16988,-0.0679 1.70052,-0.74144 1.88886,-0.69117 0.0814,0.0217 0.59177,0.31917 0.39469,0.56126 -0.0779,0.0956 -0.19909,0.14558 -0.29864,0.21836 -2.7729,1.72102 -5.48583,3.54779 -8.42512,4.98851 -2.77061,1.40715 -5.66716,2.54609 -8.39808,4.03258 0.68511,-0.40208 1.35809,-0.82559 2.05534,-1.20623 0.42964,-0.23455 -0.83674,0.50828 -1.2519,0.76761 -2.31276,1.44469 -4.54013,3.03768 -7.01986,4.2039 0,0 3.30017,-2.61534 3.30017,-2.61534 z"
       inkscape:connector-curvature="0" />
  </g>
</svg>
